<svg width="215" height="68" viewBox="0 0 215 68" fill="none" xmlns="http://www.w3.org/2000/svg">
<path d="M19.1121 10.625C17.8379 10.625 16.9885 11.9 16.9885 12.75V23.375H12.7414V12.75C12.7414 11.475 11.892 10.625 10.6178 10.625C9.34368 10.625 8.49425 11.9 8.49425 12.75V23.375H4.24713V12.75C4.24713 11.475 3.3977 10.625 2.12356 10.625C0.849425 10.625 0 11.9 0 12.75V26.775C0 30.6 2.97299 33.575 6.37069 34V63.75C6.37069 66.3 8.06954 68 10.6178 68C13.1661 68 14.8649 66.3 14.8649 63.75V34C18.2626 33.575 21.2356 30.6 21.2356 26.775V12.75C21.2356 11.9 20.3862 10.625 19.1121 10.625ZM27.6063 12.75V38.25H31.8534V63.75C31.8534 66.3 33.5523 68 36.1006 68C38.6488 68 40.3477 66.3 40.3477 63.75V0C33.1276 0 27.6063 5.525 27.6063 12.75ZM57.3362 8.5C51.3902 8.5 46.7184 14.875 46.7184 22.525C46.2937 27.625 48.8419 32.3 53.0891 35.275V63.75C53.0891 66.3 54.7879 68 57.3362 68C59.8845 68 61.5833 66.3 61.5833 63.75V35.275C65.8305 32.3 68.3787 27.625 67.954 22.525C67.954 14.875 63.2822 8.5 57.3362 8.5Z" fill="#F9F9F9"/>
<path d="M93.112 27.224C91.4693 27.224 89.9973 26.9573 88.696 26.424C87.3947 25.8907 86.3493 25.1013 85.56 24.056C84.792 23.0107 84.3867 21.752 84.344 20.28H90.168C90.2533 21.112 90.5413 21.752 91.032 22.2C91.5227 22.6267 92.1627 22.84 92.952 22.84C93.7627 22.84 94.4027 22.6587 94.872 22.296C95.3413 21.912 95.576 21.3893 95.576 20.728C95.576 20.1733 95.384 19.7147 95 19.352C94.6373 18.9893 94.1787 18.6907 93.624 18.456C93.0907 18.2213 92.3227 17.9547 91.32 17.656C89.8693 17.208 88.6853 16.76 87.768 16.312C86.8507 15.864 86.0613 15.2027 85.4 14.328C84.7387 13.4533 84.408 12.312 84.408 10.904C84.408 8.81333 85.1653 7.18133 86.68 6.008C88.1947 4.81333 90.168 4.216 92.6 4.216C95.0747 4.216 97.0693 4.81333 98.584 6.008C100.099 7.18133 100.909 8.824 101.016 10.936H95.096C95.0533 10.2107 94.7867 9.64533 94.296 9.24C93.8053 8.81333 93.176 8.6 92.408 8.6C91.7467 8.6 91.2133 8.78133 90.808 9.144C90.4027 9.48533 90.2 9.98667 90.2 10.648C90.2 11.3733 90.5413 11.9387 91.224 12.344C91.9067 12.7493 92.9733 13.1867 94.424 13.656C95.8747 14.1467 97.048 14.616 97.944 15.064C98.8613 15.512 99.6507 16.1627 100.312 17.016C100.973 17.8693 101.304 18.968 101.304 20.312C101.304 21.592 100.973 22.7547 100.312 23.8C99.672 24.8453 98.7333 25.6773 97.496 26.296C96.2587 26.9147 94.7973 27.224 93.112 27.224ZM114.624 22.36V27H111.84C109.856 27 108.309 26.52 107.2 25.56C106.09 24.5787 105.536 22.9893 105.536 20.792V13.688H103.36V9.144H105.536V4.792H111.008V9.144H114.592V13.688H111.008V20.856C111.008 21.3893 111.136 21.7733 111.392 22.008C111.648 22.2427 112.074 22.36 112.672 22.36H114.624ZM135.304 9.144V27H129.832V24.568C129.277 25.3573 128.52 25.9973 127.56 26.488C126.621 26.9573 125.576 27.192 124.424 27.192C123.058 27.192 121.853 26.8933 120.808 26.296C119.762 25.6773 118.952 24.792 118.376 23.64C117.8 22.488 117.512 21.1333 117.512 19.576V9.144H122.952V18.84C122.952 20.0347 123.261 20.9627 123.88 21.624C124.498 22.2853 125.33 22.616 126.376 22.616C127.442 22.616 128.285 22.2853 128.904 21.624C129.522 20.9627 129.832 20.0347 129.832 18.84V9.144H135.304ZM138.146 18.04C138.146 16.2053 138.487 14.5947 139.17 13.208C139.874 11.8213 140.823 10.7547 142.018 10.008C143.213 9.26133 144.546 8.888 146.018 8.888C147.191 8.888 148.258 9.13333 149.218 9.624C150.199 10.1147 150.967 10.776 151.522 11.608V3.32H156.994V27H151.522V24.44C151.01 25.2933 150.274 25.976 149.314 26.488C148.375 27 147.277 27.256 146.018 27.256C144.546 27.256 143.213 26.8827 142.018 26.136C140.823 25.368 139.874 24.2907 139.17 22.904C138.487 21.496 138.146 19.8747 138.146 18.04ZM151.522 18.072C151.522 16.7067 151.138 15.6293 150.37 14.84C149.623 14.0507 148.706 13.656 147.618 13.656C146.53 13.656 145.602 14.0507 144.834 14.84C144.087 15.608 143.714 16.6747 143.714 18.04C143.714 19.4053 144.087 20.4933 144.834 21.304C145.602 22.0933 146.53 22.488 147.618 22.488C148.706 22.488 149.623 22.0933 150.37 21.304C151.138 20.5147 151.522 19.4373 151.522 18.072ZM177.785 17.784C177.785 18.296 177.753 18.8293 177.689 19.384H165.305C165.39 20.4933 165.742 21.3467 166.361 21.944C167.001 22.52 167.779 22.808 168.697 22.808C170.062 22.808 171.011 22.232 171.545 21.08H177.369C177.07 22.2533 176.526 23.3093 175.737 24.248C174.969 25.1867 173.998 25.9227 172.825 26.456C171.651 26.9893 170.339 27.256 168.889 27.256C167.139 27.256 165.582 26.8827 164.217 26.136C162.851 25.3893 161.785 24.3227 161.017 22.936C160.249 21.5493 159.865 19.928 159.865 18.072C159.865 16.216 160.238 14.5947 160.985 13.208C161.753 11.8213 162.819 10.7547 164.185 10.008C165.55 9.26133 167.118 8.888 168.889 8.888C170.617 8.888 172.153 9.25067 173.497 9.976C174.841 10.7013 175.886 11.736 176.633 13.08C177.401 14.424 177.785 15.992 177.785 17.784ZM172.185 16.344C172.185 15.4053 171.865 14.6587 171.225 14.104C170.585 13.5493 169.785 13.272 168.825 13.272C167.907 13.272 167.129 13.5387 166.489 14.072C165.87 14.6053 165.486 15.3627 165.337 16.344H172.185ZM191.552 8.952C193.642 8.952 195.306 9.63467 196.544 11C197.802 12.344 198.432 14.2 198.432 16.568V27H192.992V17.304C192.992 16.1093 192.682 15.1813 192.064 14.52C191.445 13.8587 190.613 13.528 189.568 13.528C188.522 13.528 187.69 13.8587 187.072 14.52C186.453 15.1813 186.144 16.1093 186.144 17.304V27H180.672V9.144H186.144V11.512C186.698 10.7227 187.445 10.104 188.384 9.656C189.322 9.18667 190.378 8.952 191.552 8.952ZM212.186 22.36V27H209.402C207.418 27 205.871 26.52 204.762 25.56C203.653 24.5787 203.098 22.9893 203.098 20.792V13.688H200.922V9.144H203.098V4.792H208.57V9.144H212.154V13.688H208.57V20.856C208.57 21.3893 208.698 21.7733 208.954 22.008C209.21 22.2427 209.637 22.36 210.234 22.36H212.186ZM93.112 59.224C91.4693 59.224 89.9973 58.9573 88.696 58.424C87.3947 57.8907 86.3493 57.1013 85.56 56.056C84.792 55.0107 84.3867 53.752 84.344 52.28H90.168C90.2533 53.112 90.5413 53.752 91.032 54.2C91.5227 54.6267 92.1627 54.84 92.952 54.84C93.7627 54.84 94.4027 54.6587 94.872 54.296C95.3413 53.912 95.576 53.3893 95.576 52.728C95.576 52.1733 95.384 51.7147 95 51.352C94.6373 50.9893 94.1787 50.6907 93.624 50.456C93.0907 50.2213 92.3227 49.9547 91.32 49.656C89.8693 49.208 88.6853 48.76 87.768 48.312C86.8507 47.864 86.0613 47.2027 85.4 46.328C84.7387 45.4533 84.408 44.312 84.408 42.904C84.408 40.8133 85.1653 39.1813 86.68 38.008C88.1947 36.8133 90.168 36.216 92.6 36.216C95.0747 36.216 97.0693 36.8133 98.584 38.008C100.099 39.1813 100.909 40.824 101.016 42.936H95.096C95.0533 42.2107 94.7867 41.6453 94.296 41.24C93.8053 40.8133 93.176 40.6 92.408 40.6C91.7467 40.6 91.2133 40.7813 90.808 41.144C90.4027 41.4853 90.2 41.9867 90.2 42.648C90.2 43.3733 90.5413 43.9387 91.224 44.344C91.9067 44.7493 92.9733 45.1867 94.424 45.656C95.8747 46.1467 97.048 46.616 97.944 47.064C98.8613 47.512 99.6507 48.1627 100.312 49.016C100.973 49.8693 101.304 50.968 101.304 52.312C101.304 53.592 100.973 54.7547 100.312 55.8C99.672 56.8453 98.7333 57.6773 97.496 58.296C96.2587 58.9147 94.7973 59.224 93.112 59.224ZM110.144 43.672C110.677 42.84 111.413 42.168 112.352 41.656C113.29 41.144 114.389 40.888 115.648 40.888C117.12 40.888 118.453 41.2613 119.648 42.008C120.842 42.7547 121.781 43.8213 122.464 45.208C123.168 46.5947 123.52 48.2053 123.52 50.04C123.52 51.8747 123.168 53.496 122.464 54.904C121.781 56.2907 120.842 57.368 119.648 58.136C118.453 58.8827 117.12 59.256 115.648 59.256C114.41 59.256 113.312 59 112.352 58.488C111.413 57.976 110.677 57.3147 110.144 56.504V67.512H104.672V41.144H110.144V43.672ZM117.952 50.04C117.952 48.6747 117.568 47.608 116.8 46.84C116.053 46.0507 115.125 45.656 114.016 45.656C112.928 45.656 112 46.0507 111.232 46.84C110.485 47.6293 110.112 48.7067 110.112 50.072C110.112 51.4373 110.485 52.5147 111.232 53.304C112 54.0933 112.928 54.488 114.016 54.488C115.104 54.488 116.032 54.0933 116.8 53.304C117.568 52.4933 117.952 51.4053 117.952 50.04ZM134.518 59.256C132.769 59.256 131.19 58.8827 129.782 58.136C128.396 57.3893 127.297 56.3227 126.486 54.936C125.697 53.5493 125.302 51.928 125.302 50.072C125.302 48.2373 125.708 46.6267 126.518 45.24C127.329 43.832 128.438 42.7547 129.846 42.008C131.254 41.2613 132.833 40.888 134.582 40.888C136.332 40.888 137.91 41.2613 139.318 42.008C140.726 42.7547 141.836 43.832 142.646 45.24C143.457 46.6267 143.862 48.2373 143.862 50.072C143.862 51.9067 143.446 53.528 142.614 54.936C141.804 56.3227 140.684 57.3893 139.254 58.136C137.846 58.8827 136.268 59.256 134.518 59.256ZM134.518 54.52C135.564 54.52 136.449 54.136 137.174 53.368C137.921 52.6 138.294 51.5013 138.294 50.072C138.294 48.6427 137.932 47.544 137.206 46.776C136.502 46.008 135.628 45.624 134.582 45.624C133.516 45.624 132.63 46.008 131.926 46.776C131.222 47.5227 130.87 48.6213 130.87 50.072C130.87 51.5013 131.212 52.6 131.894 53.368C132.598 54.136 133.473 54.52 134.518 54.52ZM154.893 59.256C153.144 59.256 151.565 58.8827 150.157 58.136C148.771 57.3893 147.672 56.3227 146.861 54.936C146.072 53.5493 145.677 51.928 145.677 50.072C145.677 48.2373 146.083 46.6267 146.893 45.24C147.704 43.832 148.813 42.7547 150.221 42.008C151.629 41.2613 153.208 40.888 154.957 40.888C156.707 40.888 158.285 41.2613 159.693 42.008C161.101 42.7547 162.211 43.832 163.021 45.24C163.832 46.6267 164.237 48.2373 164.237 50.072C164.237 51.9067 163.821 53.528 162.989 54.936C162.179 56.3227 161.059 57.3893 159.629 58.136C158.221 58.8827 156.643 59.256 154.893 59.256ZM154.893 54.52C155.939 54.52 156.824 54.136 157.549 53.368C158.296 52.6 158.669 51.5013 158.669 50.072C158.669 48.6427 158.307 47.544 157.581 46.776C156.877 46.008 156.003 45.624 154.957 45.624C153.891 45.624 153.005 46.008 152.301 46.776C151.597 47.5227 151.245 48.6213 151.245 50.072C151.245 51.5013 151.587 52.6 152.269 53.368C152.973 54.136 153.848 54.52 154.893 54.52ZM178.02 40.952C180.111 40.952 181.775 41.6347 183.012 43C184.271 44.344 184.9 46.2 184.9 48.568V59H179.46V49.304C179.46 48.1093 179.151 47.1813 178.532 46.52C177.914 45.8587 177.082 45.528 176.036 45.528C174.991 45.528 174.159 45.8587 173.54 46.52C172.922 47.1813 172.612 48.1093 172.612 49.304V59H167.14V41.144H172.612V43.512C173.167 42.7227 173.914 42.104 174.852 41.656C175.791 41.1867 176.847 40.952 178.02 40.952Z" fill="#F9F9F9"/>
</svg>
