<svg width="68" height="68" viewBox="0 0 68 68" fill="none" xmlns="http://www.w3.org/2000/svg">
<path d="M34 0C31.2948 0 28.7004 1.5352 26.7875 4.26787C24.8746 7.00055 23.8 10.7068 23.8 14.5714C23.8 18.436 24.8746 22.1423 26.7875 24.875C28.7004 27.6077 31.2948 29.1429 34 29.1429C36.7052 29.1429 39.2996 27.6077 41.2125 24.875C43.1254 22.1423 44.2 18.436 44.2 14.5714C44.2 10.7068 43.1254 7.00055 41.2125 4.26787C39.2996 1.5352 36.7052 0 34 0ZM37.4 34H30.6C21.216 34 13.6 44.88 13.6 58.2857V60.7143C13.6 64.7457 15.878 68 18.7 68H49.3C52.122 68 54.4 64.7457 54.4 60.7143V58.2857C54.4 44.88 46.784 34 37.4 34ZM15.3 29.1429C16.898 29.1429 18.36 28.56 19.618 27.54C18.192 24.2966 17.3198 20.6197 17.0718 16.8061C16.8237 12.9924 17.2068 9.14891 18.19 5.58571C17.306 5.14857 16.32 4.85714 15.3 4.85714C10.404 4.85714 6.8 10.0057 6.8 17C6.8 23.9943 10.404 29.1429 15.3 29.1429ZM13.974 34H11.9C5.338 34 0 41.6257 0 51V55.8571C0 57.2171 0.748 58.2857 1.7 58.2857H6.8C6.8 48.7657 9.554 40.1686 13.974 34ZM52.7 29.1429C57.596 29.1429 61.2 23.9943 61.2 17C61.2 10.0057 57.596 4.85714 52.7 4.85714C51.646 4.85714 50.694 5.14857 49.81 5.58571C50.7932 9.14891 51.1763 12.9924 50.9282 16.8061C50.6802 20.6197 49.808 24.2966 48.382 27.54C49.64 28.56 51.068 29.1429 52.7 29.1429ZM56.1 34H54.026C56.2978 37.157 58.1033 40.933 59.3355 45.1044C60.5678 49.2759 61.2018 53.758 61.2 58.2857H66.3C67.252 58.2857 68 57.2171 68 55.8571V51C68 41.6257 62.662 34 56.1 34Z" fill="#333333"/>
</svg>
