<svg width="68" height="68" viewBox="0 0 68 68" fill="none" xmlns="http://www.w3.org/2000/svg">
<path d="M54.974 6.49624L56.898 18.1053L67.9685 23.4887L62.3859 34.015L68 44.5414L56.8349 49.9248L54.9109 61.5338L42.6419 59.6992L33.9054 68L25.1373 59.5789L12.9629 61.5038L11.0074 49.8045L0 44.4511L5.6141 33.9248L0.0315399 23.4887L11.102 18.0451L13.026 6.52632L25.2319 8.45113L34 0L42.7365 8.33083L54.974 6.49624ZM26.115 18.9774C24.8603 18.9774 23.6569 19.4527 22.7697 20.2988C21.8825 21.1448 21.384 22.2923 21.384 23.4887C21.384 24.6852 21.8825 25.8326 22.7697 26.6787C23.6569 27.5247 24.8603 28 26.115 28C27.3698 28 28.5731 27.5247 29.4603 26.6787C30.3476 25.8326 30.846 24.6852 30.846 23.4887C30.846 22.2923 30.3476 21.1448 29.4603 20.2988C28.5731 19.4527 27.3698 18.9774 26.115 18.9774ZM41.885 40.0301C40.6302 40.0301 39.4269 40.5054 38.5397 41.3514C37.6524 42.1974 37.154 43.3449 37.154 44.5414C37.154 45.7378 37.6524 46.8853 38.5397 47.7313C39.4269 48.5773 40.6302 49.0526 41.885 49.0526C43.1397 49.0526 44.3431 48.5773 45.2303 47.7313C46.1175 46.8853 46.616 45.7378 46.616 44.5414C46.616 43.3449 46.1175 42.1974 45.2303 41.3514C44.3431 40.5054 43.1397 40.0301 41.885 40.0301ZM22.6772 49.0526L49.7699 23.218L45.3228 18.9774L18.2301 44.812L22.6772 49.0526Z" fill="#333333"/>
</svg>
